<svg width="16" height="18" fill="none" xmlns="http://www.w3.org/2000/svg"><path d="M11.355 1.828a15.752 15.752 0 00-1.968 2.109C8.437 2.6 7.242 1.265 5.907-.001 2.425 3.234 0 7.382 0 9.913 0 14.378 3.516 18 7.875 18c4.324 0 7.875-3.62 7.875-8.086 0-1.863-1.828-5.73-4.395-8.085zm-3.48 14.484c-3.445 0-6.188-2.848-6.188-6.399 0-1.582 1.547-4.675 4.22-7.523.773.809 1.476 1.688 2.109 2.531l1.3 1.758 1.371-1.687.633-.739c1.617 2.004 2.742 4.57 2.742 5.66 0 3.551-2.777 6.399-6.187 6.399zm3.129-7.734L9.21 10.617S6.363 6.995 6.152 6.749c-1.476 1.793-2.215 2.848-2.215 4.043 0 2.391 1.793 3.832 4.008 3.832.88 0 1.723-.246 2.39-.738 1.513-1.055 1.864-3.094 1.02-4.71-.105-.177-.21-.388-.351-.598z" fill="#0B6E45"/></svg>