<svg width="19" height="18" fill="none" xmlns="http://www.w3.org/2000/svg"><path d="M9.917 6.916c-.424 0-.838.123-1.19.352a2.097 2.097 0 00-.79.935c-.162.38-.204.8-.121 1.204.083.404.287.775.587 1.067.3.29.681.49 1.097.57a2.2 2.2 0 001.238-.12 2.13 2.13 0 00.962-.766c.235-.343.36-.746.36-1.158 0-.553-.226-1.082-.628-1.473a2.176 2.176 0 00-1.515-.61zm5.01-1.601a2.105 2.105 0 00-.483-.717 2.176 2.176 0 00-.738-.471c-.844-.324-2.853-.251-3.789-.251-.936 0-2.943-.076-3.79.251a2.176 2.176 0 00-.737.47c-.21.205-.375.449-.484.718-.333.82-.258 2.775-.258 3.685 0 .909-.075 2.862.26 3.685a2.154 2.154 0 001.221 1.187c.844.325 2.853.252 3.79.252.936 0 2.942.075 3.788-.251a2.123 2.123 0 001.222-1.188c.336-.82.259-2.776.259-3.685 0-.91.077-2.862-.259-3.685h-.001zm-5.01 6.888a3.362 3.362 0 01-1.83-.54 3.225 3.225 0 01-1.214-1.437 3.12 3.12 0 01-.187-1.85c.127-.622.44-1.193.901-1.64a3.325 3.325 0 011.687-.878 3.382 3.382 0 011.904.183 3.276 3.276 0 011.478 1.18 3.14 3.14 0 01-.408 4.045 3.356 3.356 0 01-2.331.937zm3.43-5.793a.785.785 0 01-.427-.126.752.752 0 01-.283-.335.728.728 0 01.166-.815.79.79 0 01.838-.162c.14.056.26.152.345.275a.733.733 0 01-.093.945.77.77 0 01-.544.22l-.002-.002zM16.988.25H2.846c-.512 0-1.002.198-1.364.55a1.849 1.849 0 00-.565 1.325v13.75c0 .497.203.974.565 1.326a1.96 1.96 0 001.364.549h14.142c.512 0 1.002-.198 1.364-.55.362-.35.565-.828.565-1.325V2.125a1.85 1.85 0 00-.565-1.326A1.957 1.957 0 0016.988.25zm-.687 11.328c-.052 1.001-.287 1.888-1.04 2.617-.75.73-1.662.962-2.691 1.01-1.061.058-4.242.058-5.304 0-1.03-.05-1.939-.28-2.692-1.01-.752-.73-.99-1.618-1.038-2.617-.06-1.032-.06-4.125 0-5.156.052-1.001.284-1.888 1.038-2.617.755-.73 1.667-.96 2.692-1.007 1.062-.059 4.243-.059 5.304 0 1.03.05 1.942.279 2.692 1.01.75.73.99 1.617 1.039 2.619.06 1.028.06 4.118 0 5.151z" fill="#000"/></svg>