<svg width="69" height="58" fill="none" xmlns="http://www.w3.org/2000/svg"><path d="M52.508 35.487c-2.242-.58-4.53-.93-6.85-1.167-4.244-.434-8.492-.39-12.747-.14-.77.045-.85.404-.992.849-1.558 4.868-2.847 9.785-4.028 14.717-.2.834-.467 1.064-1.49.694a25.341 25.341 0 00-3.343-.93c-.869-.187-.97-.516-.765-1.156 1.363-4.254 2.88-8.47 4.774-12.596.135-.294.26-.59.426-.972-1.332-.082-2.535.212-3.744.368-3.695.48-7.347 1.132-11.006 1.765-.854.148-.937.44-.84 1.035 1.001 6.129 1.276 12.282.982 18.457-.03.667-.31.86-1.089.866-1.259.012-2.527.038-3.775.166-.92.093-1.036-.164-.972-.817.535-5.485 1.034-10.972 1.143-16.478.012-.57-.01-1.14.033-1.708.038-.54-.197-.636-.833-.5-1.939.416-3.903.764-5.841 1.184-.777.169-1.03.015-1.08-.629-.083-1.071-.262-2.139-.45-3.202-.09-.51.09-.724.746-.813 2.135-.289 4.26-.634 6.39-.946.542-.08.935-.144.879-.744-.505-5.222-1.463-10.363-4.022-15.235-.27-.512-.577-1.012-.934-1.633.764.137.98.589 1.261.96 2.81 3.724 4.371 7.826 5.614 12.02.346 1.166.646 2.343.916 3.521.104.454.258.633.911.56 5.354-.604 10.734-.944 16.142-.942.788 0 1.079-.264 1.351-.788 2.48-4.798 5.344-9.438 9.046-13.717 1.688-1.952 3.531-3.804 5.74-5.403.262-.19.541-.365.825-.536.043-.026.145.012.218.02.154.073.08.178.014.238-5.22 4.893-8.42 10.633-10.863 16.69-.353.871-.651 1.758-1.027 2.623-.289.666-.168.917.826.95 5.013.163 9.976.649 14.785 1.864 1.049.266 2.066.614 3.091.939.27.089.637.136.578.566z" fill="#fff"/><path d="M67.112.07c-5.417 3.605-7.59 8.644-9.983 13.584-1.41 2.912-2.781 5.833-5.001 8.45-3.661 4.315-8.852 5.836-15.11 5.53-.078-.003-.153-.028-.232-.036-2.994-.296-3.027-.305-1.96-2.583 3.113-6.65 8.218-12.187 14.84-16.85 1.766-1.242 3.608-2.414 5.449-3.64-1.792-.14-8.958 4.026-13.725 7.948-4.014 3.302-7.221 7.084-10.123 11.06.49-1.2 1.124-2.33 1.825-3.446 2.864-4.576 6.26-8.838 10.927-12.385C49.702 3.382 56.443.9 64.206.182c.92-.087 1.834-.288 2.906-.112z" fill="#B0D148"/><path d="M45.865 27.061c3.96-1.337 6.45-3.759 8.364-6.646 2.005-3.021 3.319-6.277 4.921-9.433.653-1.286 1.392-2.545 2.102-3.812.14-.251.236-.553.686-.58 2.154-.129 4.289.05 6.46.232-4.744 2.131-7.392 5.634-9.877 9.25-1.598 2.325-3.084 4.702-5.09 6.83-1.663 1.766-3.637 3.238-6.236 4.089-.383.127-.764.346-1.33.07z" fill="#fff"/></svg>