<svg width="20" height="19" fill="none" xmlns="http://www.w3.org/2000/svg"><path d="M18.063 6.39l-5.133-.738L10.61.977c-.387-.809-1.583-.844-2.005 0L6.32 5.652l-5.168.739C.238 6.53-.113 7.656.555 8.324l3.691 3.621-.879 5.098c-.14.914.844 1.617 1.653 1.195l4.605-2.425 4.57 2.425c.809.422 1.793-.28 1.653-1.195l-.88-5.098 3.692-3.62c.668-.669.317-1.794-.598-1.934zm-4.922 4.958l.843 4.851-4.359-2.285L5.23 16.2l.844-4.851-3.55-3.446L7.41 7.2l2.215-4.43 2.18 4.43 4.886.703-3.55 3.446z" fill="#0B6E45"/></svg>