<svg width="17" height="14" fill="none" xmlns="http://www.w3.org/2000/svg"><path d="M14.86 3.451a6.95 6.95 0 001.626-1.687 6.15 6.15 0 01-1.875.5A3.206 3.206 0 0016.048.451a6.93 6.93 0 01-2.062.813A3.281 3.281 0 0011.58.233a3.28 3.28 0 00-3.282 3.281c0 .25.032.5.094.75A9.52 9.52 0 011.611.826a3.192 3.192 0 00-.438 1.657c0 1.125.563 2.125 1.47 2.718-.532-.03-1.063-.156-1.5-.406v.031a3.285 3.285 0 002.624 3.22c-.25.062-.562.124-.844.124-.218 0-.406-.031-.625-.062a3.266 3.266 0 003.063 2.281 6.597 6.597 0 01-4.063 1.406c-.28 0-.53-.031-.78-.062 1.437.937 3.155 1.468 5.03 1.468 6.032 0 9.313-4.968 9.313-9.312v-.438z" fill="#000"/></svg>