<svg width="17" height="17" viewBox="0 0 17 17" fill="none" xmlns="http://www.w3.org/2000/svg">
<path d="M8.83594 16.1525L9.53906 15.4846C9.71484 15.3088 9.71484 15.0275 9.53906 14.8869L4.08984 9.43768L16.0781 9.43768C16.3242 9.43768 16.5 9.22675 16.5 9.01581L16.5 8.03143C16.5 7.78534 16.3242 7.60956 16.0781 7.60956L4.08984 7.60956L9.53906 2.12518C9.71485 1.98456 9.71485 1.70331 9.53906 1.52753L8.83594 0.859557C8.69531 0.683776 8.41406 0.683776 8.23828 0.859557L0.890626 8.20721C0.714845 8.38299 0.714845 8.62909 0.890626 8.80487L8.23828 16.1525C8.41406 16.3283 8.69531 16.3283 8.83594 16.1525Z" fill="#0B6E45"/>
</svg>
