<svg width="31" height="22" viewBox="0 0 31 22" fill="none" xmlns="http://www.w3.org/2000/svg">
<path d="M26.0918 9.97412C26.2793 9.4585 26.4199 8.94287 26.4199 8.3335C26.4199 5.84912 24.4043 3.8335 21.9199 3.8335C20.9824 3.8335 20.0918 4.11475 19.3887 4.63037C18.123 2.38037 15.6855 0.833496 12.9199 0.833496C8.74805 0.833496 5.41992 4.2085 5.41992 8.3335C5.41992 8.47412 5.41992 8.61475 5.41992 8.75537C2.79492 9.646 0.919922 12.1772 0.919922 15.0835C0.919922 18.8335 3.91992 21.8335 7.66992 21.8335H24.9199C28.2012 21.8335 30.9199 19.1616 30.9199 15.8335C30.9199 12.9741 28.8574 10.5366 26.0918 9.97412Z" fill="#AED143"/>
</svg>
