<svg width="16" height="18" viewBox="0 0 16 18" fill="none" xmlns="http://www.w3.org/2000/svg">
<path d="M11.3555 1.82751C10.6172 2.49548 9.94922 3.19861 9.38672 3.93689C8.4375 2.60095 7.24219 1.26501 5.90625 -0.000610352C2.42578 3.23376 0 7.3822 0 9.91345C0 14.3783 3.51562 17.9994 7.875 17.9994C12.1992 17.9994 15.75 14.3783 15.75 9.91345C15.75 8.05017 13.9219 4.18298 11.3555 1.82751ZM7.875 16.3119C4.42969 16.3119 1.6875 13.4642 1.6875 9.91345C1.6875 8.33142 3.23438 5.23767 5.90625 2.39001C6.67969 3.19861 7.38281 4.07751 8.01562 4.92126L9.31641 6.67908L10.6875 4.99158C10.8984 4.74548 11.1094 4.49939 11.3203 4.2533C12.9375 6.2572 14.0625 8.82361 14.0625 9.91345C14.0625 13.4642 11.2852 16.3119 7.875 16.3119ZM11.0039 8.57751L9.21094 10.6166C9.21094 10.6166 6.36328 6.99548 6.15234 6.74939C4.67578 8.54236 3.9375 9.59705 3.9375 10.7924C3.9375 13.183 5.73047 14.6244 7.94531 14.6244C8.82422 14.6244 9.66797 14.3783 10.3359 13.8861C11.8477 12.8314 12.1992 10.7924 11.3555 9.17517C11.25 8.99939 11.1445 8.78845 11.0039 8.57751Z" fill="#0B6E45"/>
</svg>
