<svg width="69" height="58" viewBox="0 0 69 58" fill="none" xmlns="http://www.w3.org/2000/svg">
<path d="M52.5076 35.4866C50.2662 34.9073 47.9776 34.5578 45.6581 34.3204C41.4144 33.8855 37.166 33.9292 32.9106 34.1799C32.1413 34.2254 32.0609 34.5844 31.9189 35.0288C30.3615 39.8967 29.0716 44.814 27.8906 49.7465C27.6918 50.5803 27.4243 50.8101 26.4019 50.4398C25.3297 50.0523 24.196 49.7503 23.0576 49.5091C22.189 49.323 22.0872 48.9944 22.2931 48.3543C23.6564 44.0999 25.1735 39.8835 27.0669 35.7582C27.2019 35.4638 27.3273 35.1675 27.493 34.7857C26.1605 34.7041 24.9581 34.9985 23.7487 35.1542C20.0541 35.6347 16.4022 36.2862 12.7431 36.9186C11.8887 37.0668 11.8059 37.3593 11.9029 37.9538C12.9041 44.0828 13.1786 50.2365 12.8851 56.4111C12.8544 57.0778 12.5751 57.2715 11.7964 57.2772C10.5373 57.2886 9.26867 57.3152 8.02137 57.4425C7.10069 57.5355 6.98471 57.2791 7.04862 56.6258C7.58351 51.1406 8.08291 45.6535 8.19178 40.1475C8.20361 39.5777 8.18231 39.0079 8.22491 38.44C8.26278 37.9006 8.02847 37.8037 7.3918 37.9405C5.4534 38.3564 3.48896 38.704 1.55056 39.1237C0.774252 39.2928 0.521005 39.1389 0.471303 38.4951C0.388465 37.4239 0.208589 36.3565 0.0216121 35.2929C-0.068326 34.7838 0.11155 34.5692 0.767152 34.4799C2.902 34.1913 5.02738 33.8456 7.15749 33.5341C7.69949 33.4543 8.09237 33.3898 8.03557 32.7896C7.53144 27.5684 6.57289 22.427 4.01439 17.5553C3.74458 17.0425 3.43689 16.543 3.07951 15.9219C3.84398 16.0587 4.05936 16.5107 4.34101 16.8811C7.15039 20.6056 8.71247 24.7081 9.95504 28.9017C10.3006 30.0679 10.6012 31.2454 10.871 32.423C10.9751 32.8769 11.129 33.0555 11.7822 32.9833C17.1359 32.3793 22.5156 32.0394 27.9237 32.0413C28.7119 32.0413 29.003 31.7773 29.2752 31.253C31.7556 26.4554 34.6194 21.8154 38.321 17.5363C40.0086 15.5838 41.8523 13.732 44.0605 12.1328C44.3232 11.9429 44.6025 11.7681 44.8865 11.5972C44.9291 11.5706 45.0309 11.6086 45.1043 11.6162C45.2581 11.6903 45.1847 11.7947 45.1185 11.8555C39.8973 16.7481 36.6974 22.4878 34.2549 28.5446C33.9022 29.4164 33.604 30.3034 33.2277 31.1676C32.939 31.8342 33.0597 32.0849 34.0537 32.1172C39.0666 32.2806 44.0297 32.7668 48.8391 33.9823C49.8876 34.2482 50.9053 34.5958 51.9301 34.9206C52.1999 35.0099 52.5668 35.0573 52.5076 35.4866Z" fill="white"/>
<path d="M67.1122 0.0703141C61.6946 3.67514 59.5219 8.71393 57.129 13.6539C55.7184 16.5655 54.348 19.4866 52.128 22.1038C48.4666 26.419 43.2762 27.9403 37.0184 27.6345C36.9403 27.6307 36.8646 27.606 36.7864 27.5984C33.7925 27.3022 33.7593 27.2927 34.8267 25.0154C37.9391 18.3642 43.0442 12.8278 49.6665 8.16504C51.4322 6.92291 53.2735 5.75105 55.1149 4.52412C53.3232 4.38547 46.1566 8.55059 41.3899 12.4726C37.3758 15.7754 34.1688 19.5569 31.2671 23.5321C31.757 22.3336 32.3913 21.2036 33.0919 20.0868C35.9557 15.5114 39.3521 11.2495 44.0194 7.70161C49.702 3.38265 56.4426 0.900298 64.2057 0.182371C65.1264 0.0950047 66.04 -0.106319 67.1122 0.0703141Z" fill="#B0D148"/>
<path d="M45.8652 27.0611C49.8249 25.724 52.3147 23.3024 54.2295 20.4154C56.2341 17.3936 57.5477 14.1382 59.15 10.9816C59.8033 9.69577 60.5417 8.43653 61.2517 7.1697C61.3914 6.91899 61.4884 6.617 61.9381 6.59041C64.0919 6.46126 66.2267 6.63979 68.3971 6.82213C63.654 8.95314 61.0056 12.4555 58.5205 16.0717C56.9229 18.3965 55.4365 20.7744 53.4319 22.9016C51.768 24.668 49.7941 26.1399 47.1954 26.9908C46.812 27.1181 46.4309 27.3365 45.8652 27.0611Z" fill="white"/>
</svg>
