<svg width="18" height="15" viewBox="0 0 18 15" fill="none" xmlns="http://www.w3.org/2000/svg">
<path d="M17.0312 2.34375H0.46875C0.15625 2.34375 0 2.1875 0 1.875V0.625C0 0.3125 0.15625 0.15625 0.46875 0.15625H17.0312C17.3438 0.15625 17.5 0.3125 17.5 0.625V1.875C17.5 2.1875 17.3438 2.34375 17.0312 2.34375ZM17.0312 8.59375H0.46875C0.15625 8.59375 0 8.4375 0 8.125V6.875C0 6.5625 0.15625 6.40625 0.46875 6.40625H17.0312C17.3438 6.40625 17.5 6.5625 17.5 6.875V8.125C17.5 8.4375 17.3438 8.59375 17.0312 8.59375ZM17.0312 14.8438H0.46875C0.15625 14.8438 0 14.6875 0 14.375V13.125C0 12.8125 0.15625 12.6562 0.46875 12.6562H17.0312C17.3438 12.6562 17.5 12.8125 17.5 13.125V14.375C17.5 14.6875 17.3438 14.8438 17.0312 14.8438Z" fill="black"/>
</svg>
