<svg width="17" height="14" viewBox="0 0 17 14" fill="none" xmlns="http://www.w3.org/2000/svg">
<path d="M14.8608 3.45148C15.4858 2.98273 16.0483 2.42023 16.4858 1.76398C15.9233 2.01398 15.2671 2.20148 14.6108 2.26398C15.2983 1.85773 15.7983 1.23273 16.0483 0.451477C15.4233 0.826477 14.7046 1.10773 13.9858 1.26398C13.3608 0.607727 12.5171 0.232727 11.5796 0.232727C9.76709 0.232727 8.29834 1.70148 8.29834 3.51398C8.29834 3.76398 8.32959 4.01398 8.39209 4.26398C5.67334 4.10773 3.23584 2.79523 1.61084 0.826477C1.32959 1.29523 1.17334 1.85773 1.17334 2.48273C1.17334 3.60773 1.73584 4.60773 2.64209 5.20148C2.11084 5.17023 1.57959 5.04523 1.14209 4.79523V4.82648C1.14209 6.42023 2.26709 7.73273 3.76709 8.04523C3.51709 8.10773 3.20459 8.17023 2.92334 8.17023C2.70459 8.17023 2.51709 8.13898 2.29834 8.10773C2.70459 9.42023 3.92334 10.3577 5.36084 10.389C4.23584 11.264 2.82959 11.7952 1.29834 11.7952C1.01709 11.7952 0.76709 11.764 0.51709 11.7327C1.95459 12.6702 3.67334 13.2015 5.54834 13.2015C11.5796 13.2015 14.8608 8.23273 14.8608 3.88898C14.8608 3.73273 14.8608 3.60773 14.8608 3.45148Z" fill="black"/>
</svg>
